<svg xmlns="http://www.w3.org/2000/svg" width="130" height="40"><g fill="none" fill-rule="evenodd"><path d="M0 40h130V0H0z"/><path fill="#4E8ABE" d="M14.81 8.03c0 1.48.13 1.52.78 1.6l.31.05c.1.1.09.35-.03.4a42.2 42.2 0 0 0-3.73 0c-.12-.06-.13-.3-.03-.4l.3-.05c.66-.08.79-.12.79-1.6V2.84c0-1.48-.13-1.52-.78-1.6l-.31-.04c-.1-.1-.09-.35.03-.4a41.28 41.28 0 0 0 3.73 0c.12.05.13.3.03.4l-.3.04c-.66.08-.79.12-.79 1.6v5.19zm14.7-1.53h2.44l-.44-3.63h-.03L29.51 6.5zM30.84.9h2.06l1.52 9.14h-1.99L32.13 8h-3.41l-1.16 2.04h-2.12L30.84.9zm7.64 1.5h-1.83L37 .9h1.83l-.34 1.5zm-2.03 1.02h1.83l-1.4 6.62h-1.84l1.4-6.62zm3.29 0h1.73l-.27 1.19.02.03c.41-.91 1.31-1.4 2.28-1.4.2 0 .37.01.57.04l-.37 1.76c-.26-.05-.52-.11-.77-.11-1.4 0-1.9 1.05-2.14 2.18l-.62 2.93h-1.81l1.38-6.62z"/><path fill="#4E8ABE" d="M18.1 5.16c0 1.92.82 4.54 3.2 4.54 1.6 0 2.88-1.18 2.88-3.98 0-2.11-.95-4.55-3.17-4.55-1.4 0-2.91 1.02-2.91 3.99m7.98.3a4.61 4.61 0 0 1-3.16 4.5c-.08.06-.02.18.13.3.8.7 2.04 1.8 3.08 2.1.34.1.67.16 1 .16.29 0 .52-.07.7-.14.09.04.13.2.09.28-.42.32-1.15.43-1.75.43-1.86 0-3.79-1.11-5.16-2.56-.25-.25-.34-.3-.51-.31a4.63 4.63 0 0 1-4.3-4.66 4.8 4.8 0 0 1 5-4.95c3.22 0 4.88 2.34 4.88 4.86"/><path fill="#D9272E" d="M9.18 9.33a.7.7 0 0 1-.7.7H.7a.7.7 0 0 1-.7-.7V1.55a.7.7 0 0 1 .7-.7h7.78a.7.7 0 0 1 .7.7v7.78z"/><path fill="#FFF" d="M5.6 4.53v-2H3.65v2h-2v1.93h2v2H5.6v-2h2V4.53z"/><path fill="#4E8ABE" d="M13.66 30.58l-2.8-8.13h-.06l-2.88 8.13h5.74zm-.28-13.6l8.29 22.17H16.6l-1.68-4.93H6.64l-1.73 4.93H0L8.37 17h5zM23.5 39.16h4.4V23.1h-4.4v16.05zm0-18.53h4.4V17h-4.4v3.63zm12.38 2.48v2.98h.07a5.4 5.4 0 0 1 .83-1.38A5.51 5.51 0 0 1 38 23.62a5.92 5.92 0 0 1 1.46-.7 5.28 5.28 0 0 1 1.6-.25c.3 0 .62.05.97.15v4.1a8.2 8.2 0 0 0-.74-.1 7.88 7.88 0 0 0-.84-.05c-.8 0-1.5.13-2.05.4a3.57 3.57 0 0 0-1.35 1.1 4.41 4.41 0 0 0-.73 1.63 8.87 8.87 0 0 0-.22 2.02v7.23h-4.4V23.1h4.19zm13.63 16.05L42.34 17h5l4.93 15.58h.07l5-15.58h5.02l-7.35 22.16zm14.56 0h4.4V23.1h-4.4v16.05zm0-18.53h4.4V17h-4.4v3.63zm11.75 14.54c.2.35.45.62.76.84.31.22.67.38 1.07.48a5.01 5.01 0 0 0 1.26.16c.3 0 .63-.04.98-.11.34-.07.65-.19.93-.34.28-.16.5-.37.7-.62.18-.26.27-.59.27-.98 0-.66-.43-1.16-1.31-1.5-.88-.32-2.11-.65-3.68-.99a21.22 21.22 0 0 1-1.88-.5 6.42 6.42 0 0 1-1.63-.78 3.75 3.75 0 0 1-1.15-1.21 3.42 3.42 0 0 1-.43-1.79c0-1.03.2-1.88.6-2.54a4.46 4.46 0 0 1 1.6-1.57 7.02 7.02 0 0 1 2.24-.8 13.8 13.8 0 0 1 2.54-.24c.87 0 1.71.08 2.53.25a6.7 6.7 0 0 1 2.19.83 5.02 5.02 0 0 1 1.6 1.57c.42.66.68 1.48.76 2.47h-4.2c-.05-.85-.38-1.42-.95-1.72a4.4 4.4 0 0 0-2.05-.45c-.25 0-.52.01-.81.04-.3.03-.56.1-.8.2a1.63 1.63 0 0 0-.6.46c-.16.2-.25.46-.25.79 0 .4.15.71.44.96.29.25.67.45 1.13.6.47.16 1 .3 1.6.43.6.12 1.21.25 1.83.4a18.57 18.57 0 0 1 1.88.53 6.19 6.19 0 0 1 1.63.82 4 4 0 0 1 1.15 1.27c.29.5.43 1.13.43 1.88 0 1.06-.21 1.94-.63 2.65a5.1 5.1 0 0 1-1.66 1.73 6.8 6.8 0 0 1-2.35.91 13.66 13.66 0 0 1-5.42-.01 7.2 7.2 0 0 1-2.37-.93 5.33 5.33 0 0 1-1.7-1.73 5.4 5.4 0 0 1-.74-2.68h4.2c0 .47.1.88.29 1.22m23.98 4v-2.24h-.1a4.97 4.97 0 0 1-2.17 2.01c-.89.42-1.8.63-2.73.63a7.7 7.7 0 0 1-2.9-.47 4.18 4.18 0 0 1-1.79-1.32 5.15 5.15 0 0 1-.91-2.08 12.93 12.93 0 0 1-.27-2.71V23.1h4.41v9.07c0 1.32.2 2.31.62 2.96.42.65 1.15.98 2.2.98 1.2 0 2.08-.36 2.61-1.07.54-.71.81-1.89.81-3.52V23.1h4.4v16.05H99.8zm17.69-7.86a2 2 0 0 1-.7.39c-.28.09-.58.17-.9.23a13.18 13.18 0 0 1-1 .15l-1.06.16a7.87 7.87 0 0 0-.98.25c-.32.1-.6.24-.84.42a2 2 0 0 0-.57.66c-.15.27-.22.61-.22 1.03 0 .4.07.72.22 1 .14.26.34.47.59.63.25.15.54.26.87.32.33.07.67.1 1.02.1a3.9 3.9 0 0 0 2.02-.44 2.9 2.9 0 0 0 1.05-1.04 3.32 3.32 0 0 0 .42-1.22c.06-.42.08-.75.08-1V31.3zm-10.18-3.26c.06-1.03.32-1.9.78-2.58a5.28 5.28 0 0 1 1.73-1.64 7.54 7.54 0 0 1 2.38-.89 13.48 13.48 0 0 1 2.65-.26c.8 0 1.63.06 2.46.17a7.49 7.49 0 0 1 2.26.67 4.47 4.47 0 0 1 1.68 1.38c.43.59.65 1.37.65 2.34v8.35c0 .73.04 1.42.12 2.08.09.66.23 1.16.44 1.5h-4.47a6.16 6.16 0 0 1-.2-.77 6.65 6.65 0 0 1-.11-.79 5.75 5.75 0 0 1-2.49 1.52 10 10 0 0 1-2.91.44 7.9 7.9 0 0 1-2.15-.28 4.9 4.9 0 0 1-1.73-.87 4.03 4.03 0 0 1-1.17-1.5 5.03 5.03 0 0 1-.42-2.13c0-.91.16-1.66.48-2.25a4.02 4.02 0 0 1 1.25-1.42 5.6 5.6 0 0 1 1.73-.79 18.93 18.93 0 0 1 1.97-.42 33.12 33.12 0 0 1 1.96-.25 11.79 11.79 0 0 0 1.7-.28c.5-.12.9-.3 1.19-.54.29-.24.42-.58.4-1.04 0-.47-.08-.85-.23-1.13a1.7 1.7 0 0 0-.62-.65 2.45 2.45 0 0 0-.9-.31 7.6 7.6 0 0 0-1.1-.08c-.88 0-1.56.18-2.06.56-.49.37-.78.99-.86 1.86h-4.41zm18.28 11.11H130V17h-4.4z"/></g></svg>